<svg width="128" height="128" viewBox="0 0 128 128" fill="none" xmlns="http://www.w3.org/2000/svg">
  <defs>
    <linearGradient id="bubbleGrad" x1="0" y1="0" x2="128" y2="128" gradientUnits="userSpaceOnUse">
      <stop offset="0%" stop-color="#6366f1" />
      <stop offset="100%" stop-color="#06b6d4" />
    </linearGradient>
  </defs>
  <path d="M24 24C24 19.5817 27.5817 16 32 16H96C100.418 16 104 19.5817 104 24V80C104 84.4183 100.418 88 96 88H48L24 108V24Z" fill="url(#bubbleGrad)"/>
  <path d="M64 40C64 50 70 56 80 56C70 56 64 62 64 72C64 62 58 56 48 56C58 56 64 50 64 40Z" fill="#ffffff" />
  <path d="M88 28C88 33 91 36 96 36C91 36 88 39 88 44C88 39 85 36 80 36C85 36 88 33 88 28Z" fill="#ffffff" opacity="0.8" />
</svg>
